<?xml version="1.0" encoding="utf-8"?>
<!-- Generator: Adobe Illustrator 26.5.0, SVG Export Plug-In . SVG Version: 6.00 Build 0)  -->
<svg version="1.1" id="Layer_1" xmlns="http://www.w3.org/2000/svg" xmlns:xlink="http://www.w3.org/1999/xlink" x="0px" y="0px"
	 viewBox="0 0 512 512" style="enable-background:new 0 0 512 512;" xml:space="preserve">
<style type="text/css">
	.st0{clip-path:url(#SVGID_00000039094049643132032040000010480071609293915068_);}
	.st1{clip-path:url(#SVGID_00000182520796340533843560000001638827955835637687_);fill:#231F20;}
	.st2{clip-path:url(#SVGID_00000002377225875725639730000015176890853473158032_);fill:#231F20;}
	
		.st3{clip-path:url(#SVGID_00000164512554431674896270000010424482485395051196_);fill:url(#XMLID_00000129895316684414740160000006940154077341904522_);}
	.st4{clip-path:url(#SVGID_00000147911718267487567220000004329825289763507877_);fill:#4A659B;}
	
		.st5{clip-path:url(#SVGID_00000011008292130311886540000001501462593441473931_);fill:url(#XMLID_00000018939293098105502380000000537002188156260736_);}
	.st6{clip-path:url(#SVGID_00000029032412977891523350000004323950173583275427_);}
	.st7{clip-path:url(#SVGID_00000127043537791728302390000010333660091275957683_);fill:#617CBE;}
	.st8{clip-path:url(#SVGID_00000049909015386599099830000009036056250310723002_);fill:#FFFFFF;}
	.st9{clip-path:url(#SVGID_00000078732652178424930120000008652770958385704359_);fill:#FFFFFF;}
	.st10{clip-path:url(#SVGID_00000181079526264823849790000014146634462173324456_);fill:#08090D;}
	.st11{clip-path:url(#SVGID_00000072980126960603836980000013620636742277402255_);fill:#08090D;}
	.st12{clip-path:url(#SVGID_00000059283362192977363520000016263907224754023564_);fill:#08090D;}
</style>
<g id="g3068">
</g>
<g id="XMLID_1_">
	<g id="XMLID_5_">
		<g>
			<defs>
				<path id="SVGID_1_" d="M256,413.63c141.4,0,256-60.32,256-134.66S397.4,144.3,256,144.3S0,204.62,0,278.96
					S114.6,413.63,256,413.63"/>
			</defs>
			<clipPath id="SVGID_00000147220944076056115090000011635195153079299993_">
				<use xlink:href="#SVGID_1_"  style="overflow:visible;"/>
			</clipPath>
			<g id="XMLID_8_" style="clip-path:url(#SVGID_00000147220944076056115090000011635195153079299993_);">
				<g>
					<defs>
						<rect id="SVGID_00000099643970453846878150000010592224352796993950_" x="-0.42" y="145.14" width="512.98" height="269.05"/>
					</defs>
					<clipPath id="SVGID_00000000934644180278850630000016365951556077898156_">
						<use xlink:href="#SVGID_00000099643970453846878150000010592224352796993950_"  style="overflow:visible;"/>
					</clipPath>
					<path id="XMLID_9_" style="clip-path:url(#SVGID_00000000934644180278850630000016365951556077898156_);fill:#231F20;" d="
						M256,413.63c141.4,0,256-60.32,256-134.66S397.4,144.3,256,144.3S0,204.62,0,278.96S114.6,413.63,256,413.63"/>
				</g>
				<g>
					<defs>
						<rect id="SVGID_00000116939468960806629740000011473023927010153347_" x="-0.42" y="145.14" width="512.98" height="269.05"/>
					</defs>
					<clipPath id="SVGID_00000121957609283025050700000015918801716774254760_">
						<use xlink:href="#SVGID_00000116939468960806629740000011473023927010153347_"  style="overflow:visible;"/>
					</clipPath>
					<path id="XMLID_10_" style="clip-path:url(#SVGID_00000121957609283025050700000015918801716774254760_);fill:#231F20;" d="
						M432.32,379.54C328.52,533.42,119.51,574.1-34.37,470.3S-228.93,157.49-125.12,3.61s312.95-194.42,466.83-90.76
						C495.45,16.65,536.13,225.66,432.32,379.54"/>
				</g>
				<g>
					<defs>
						<rect id="SVGID_00000159462885512873559250000006133547656125421996_" x="-0.42" y="145.14" width="512.98" height="269.05"/>
					</defs>
					<clipPath id="SVGID_00000066503714102887891420000007224637607124954022_">
						<use xlink:href="#SVGID_00000159462885512873559250000006133547656125421996_"  style="overflow:visible;"/>
					</clipPath>
					
						<radialGradient id="XMLID_00000088847511366740869230000013789765776542468235_" cx="33.7691" cy="528.9632" r="1.2167" gradientTransform="matrix(229.071 154.49 154.49 -229.071 -89301.3516 116144.8125)" gradientUnits="userSpaceOnUse">
						<stop  offset="0" style="stop-color:#4A659B"/>
						<stop  offset="1" style="stop-color:#231F20"/>
					</radialGradient>
					
						<rect id="XMLID_11_" x="-0.42" y="145.14" style="clip-path:url(#SVGID_00000066503714102887891420000007224637607124954022_);fill:url(#XMLID_00000088847511366740869230000013789765776542468235_);" width="512.98" height="269.05"/>
				</g>
				<g>
					<defs>
						<rect id="SVGID_00000147178388594566815180000013886773121367072691_" x="-0.42" y="145.14" width="512.98" height="269.05"/>
					</defs>
					<clipPath id="SVGID_00000054981483835255861360000008087323196073709239_">
						<use xlink:href="#SVGID_00000147178388594566815180000013886773121367072691_"  style="overflow:visible;"/>
					</clipPath>
					<path id="XMLID_12_" style="clip-path:url(#SVGID_00000054981483835255861360000008087323196073709239_);fill:#4A659B;" d="
						M293.03,285.7c-51.9,76.87-156.41,97.21-233.28,45.31S-37.45,174.6,14.45,97.73S170.85,0.52,247.72,52.42
						C324.59,104.18,344.93,208.69,293.03,285.7"/>
				</g>
				<g>
					<defs>
						<rect id="SVGID_00000139979460642647303850000012726313801769133227_" x="-0.42" y="145.14" width="512.98" height="269.05"/>
					</defs>
					<clipPath id="SVGID_00000104680701377291061170000017795545491507202972_">
						<use xlink:href="#SVGID_00000139979460642647303850000012726313801769133227_"  style="overflow:visible;"/>
					</clipPath>
					
						<radialGradient id="XMLID_00000009572367472545161610000009963015847883971220_" cx="33.1989" cy="528.9549" r="1.2167" gradientTransform="matrix(114.5355 77.2449 77.2449 -114.5355 -44507.8516 58211.3203)" gradientUnits="userSpaceOnUse">
						<stop  offset="0" style="stop-color:#FFFFFF"/>
						<stop  offset="1" style="stop-color:#4A659B"/>
					</radialGradient>
					
						<rect id="XMLID_13_" x="-0.42" y="145.14" style="clip-path:url(#SVGID_00000104680701377291061170000017795545491507202972_);fill:url(#XMLID_00000009572367472545161610000009963015847883971220_);" width="512.98" height="269.05"/>
				</g>
			</g>
		</g>
		<g>
			<defs>
				<path id="SVGID_00000078749260237043704140000007211091238291128496_" d="M256,413.63c141.4,0,256-60.32,256-134.66
					S397.4,144.3,256,144.3S0,204.62,0,278.96S114.6,413.63,256,413.63"/>
			</defs>
			<clipPath id="SVGID_00000003076786389274996340000005221805528296760764_">
				<use xlink:href="#SVGID_00000078749260237043704140000007211091238291128496_"  style="overflow:visible;"/>
			</clipPath>
			<g id="XMLID_15_" style="clip-path:url(#SVGID_00000003076786389274996340000005221805528296760764_);">
				<g>
					<defs>
						<rect id="SVGID_00000034777492604645118470000014724690728478451843_" x="-0.42" y="145.14" width="512.98" height="269.05"/>
					</defs>
					<clipPath id="SVGID_00000010308615936370465890000007190467130984177834_">
						<use xlink:href="#SVGID_00000034777492604645118470000014724690728478451843_"  style="overflow:visible;"/>
					</clipPath>
					<path id="XMLID_16_" style="clip-path:url(#SVGID_00000010308615936370465890000007190467130984177834_);fill:#617CBE;" d="
						M256,403.67c135.93,0,246.04-55.83,246.04-124.7S391.93,154.26,256,154.26S9.96,210.09,9.96,278.96S120.07,403.67,256,403.67"
						/>
				</g>
				<g>
					<defs>
						<rect id="SVGID_00000065059407079469871210000008293413069795160238_" x="-0.42" y="145.14" width="512.98" height="269.05"/>
					</defs>
					<clipPath id="SVGID_00000119804563030632622050000008413287485927727488_">
						<use xlink:href="#SVGID_00000065059407079469871210000008293413069795160238_"  style="overflow:visible;"/>
					</clipPath>
					<path id="XMLID_19_" style="clip-path:url(#SVGID_00000119804563030632622050000008413287485927727488_);fill:#FFFFFF;" d="
						M305.8,319.22l12.2-62.84c2.81-14.17,0.42-24.69-6.87-31.42c-7.01-6.45-18.94-9.54-36.47-9.54h-21.18l6.03-31.14
						c0.28-1.12-0.14-2.38-0.84-3.37c-0.7-0.98-1.82-1.4-3.09-1.4h-29.04c-1.96,0-3.51,1.4-3.93,3.23l-12.91,66.63
						c-1.12-7.43-4.07-13.89-8.7-19.22c-8.56-9.82-22.02-14.73-40.26-14.73h-56.53c-1.96,0-3.51,1.4-3.93,3.23L74.06,353.59
						c-0.28,1.12,0.14,2.38,0.84,3.37c0.7,0.98,1.82,1.4,3.09,1.4h29.46c1.96,0,3.51-1.4,3.93-3.23l6.31-32.68h21.88
						c11.5,0,21.18-1.26,28.62-3.65c7.72-2.52,14.73-6.73,21.04-12.62c5.05-4.63,9.26-9.82,12.48-15.43l-5.19,26.93
						c-0.28,1.12,0.14,2.38,0.84,3.37c0.7,0.98,1.82,1.4,3.09,1.4h29.18c1.96,0,3.51-1.4,3.93-3.23L248,245.16h20.06
						c8.56,0,11.08,1.68,11.64,2.38s1.96,2.95,0.42,10.38l-11.64,59.76c-0.28,1.12,0.14,2.38,0.84,3.37c0.7,0.98,1.82,1.4,3.09,1.4
						h29.6C303.83,322.45,305.52,321.19,305.8,319.22z M170.57,267.32c-1.82,9.4-5.33,16.13-10.24,19.92
						c-5.05,3.93-13.19,5.89-23.99,5.89H123.3l9.4-48.53h16.83c12.34,0,17.39,2.67,19.36,4.91
						C171.7,252.59,172.26,258.77,170.57,267.32"/>
				</g>
				<g>
					<defs>
						<rect id="SVGID_00000076581799586004141850000016224592246698747787_" x="-0.42" y="145.14" width="512.98" height="269.05"/>
					</defs>
					<clipPath id="SVGID_00000173854375722154953070000006473040128685785474_">
						<use xlink:href="#SVGID_00000076581799586004141850000016224592246698747787_"  style="overflow:visible;"/>
					</clipPath>
					<path id="XMLID_22_" style="clip-path:url(#SVGID_00000173854375722154953070000006473040128685785474_);fill:#FFFFFF;" d="
						M430.5,230.15c-8.56-9.82-22.02-14.73-40.26-14.73h-56.53c-1.96,0-3.51,1.4-3.93,3.23l-26.09,134.94
						c-0.28,1.12,0.14,2.38,0.84,3.37c0.7,0.98,1.82,1.4,3.09,1.4h29.46c1.96,0,3.51-1.4,3.93-3.23l6.17-32.68h21.88
						c11.5,0,21.18-1.26,28.62-3.65c7.72-2.52,14.73-6.73,21.04-12.62c5.19-4.77,9.54-10.1,12.76-15.99
						c3.23-5.75,5.61-12.34,6.87-19.22C441.86,253.72,439.2,240.11,430.5,230.15z M400.06,267.32c-1.82,9.4-5.33,16.13-10.24,19.92
						c-5.05,3.93-13.19,5.89-23.99,5.89h-13.05l9.4-48.53h16.83c12.34,0,17.39,2.67,19.36,4.91
						C401.18,252.59,401.74,258.77,400.06,267.32"/>
				</g>
				<g>
					<defs>
						<rect id="SVGID_00000103258673182795003010000001430959770462295980_" x="-0.42" y="145.14" width="512.98" height="269.05"/>
					</defs>
					<clipPath id="SVGID_00000018946724701816351530000009639907399403391673_">
						<use xlink:href="#SVGID_00000103258673182795003010000001430959770462295980_"  style="overflow:visible;"/>
					</clipPath>
					<path id="XMLID_25_" style="clip-path:url(#SVGID_00000018946724701816351530000009639907399403391673_);fill:#08090D;" d="
						M149.53,240.67c11.22,0,18.66,2.1,22.3,6.17c3.79,4.07,4.63,11.22,2.67,21.18c-1.96,10.38-5.89,17.96-11.78,22.3
						c-5.75,4.49-14.59,6.73-26.51,6.73h-17.81l10.94-56.53h20.2V240.67z M77.85,354.43h29.46l7.01-35.91h25.25
						c11.08,0,20.2-1.12,27.49-3.51c7.15-2.38,13.75-6.31,19.5-11.78c4.91-4.49,8.98-9.54,11.92-15.01
						c3.09-5.47,5.19-11.5,6.45-18.1c3.09-15.99,0.7-28.48-7.01-37.45c-7.86-8.98-20.2-13.33-37.17-13.33h-56.53L77.85,354.43"/>
				</g>
				<g>
					<defs>
						<rect id="SVGID_00000129179449477780511870000012574987637121534637_" x="-0.42" y="145.14" width="512.98" height="269.05"/>
					</defs>
					<clipPath id="SVGID_00000080916207041532353970000018277203550882788745_">
						<use xlink:href="#SVGID_00000129179449477780511870000012574987637121534637_"  style="overflow:visible;"/>
					</clipPath>
					<path id="XMLID_26_" style="clip-path:url(#SVGID_00000080916207041532353970000018277203550882788745_);fill:#08090D;" d="
						M226.54,183.58h29.18l-7.01,35.91h25.95c16.41,0,27.63,2.81,33.81,8.56c6.17,5.75,8.14,15.01,5.61,27.77l-12.2,62.84h-29.6
						l11.64-59.76c1.26-6.73,0.84-11.36-1.4-13.89c-2.24-2.52-7.15-3.65-14.59-3.65h-23.29l-15.01,77.29h-29.18L226.54,183.58"/>
				</g>
				<g>
					<defs>
						<rect id="SVGID_00000001640630440757390320000006722392578176743041_" x="-0.42" y="145.14" width="512.98" height="269.05"/>
					</defs>
					<clipPath id="SVGID_00000147910743988332537170000008347301059896372374_">
						<use xlink:href="#SVGID_00000001640630440757390320000006722392578176743041_"  style="overflow:visible;"/>
					</clipPath>
					<path id="XMLID_29_" style="clip-path:url(#SVGID_00000147910743988332537170000008347301059896372374_);fill:#08090D;" d="
						M379.02,240.67c11.22,0,18.66,2.1,22.3,6.17c3.79,4.07,4.63,11.22,2.67,21.18c-1.96,10.38-5.89,17.96-11.78,22.3
						c-5.75,4.49-14.59,6.73-26.51,6.73h-17.81l10.94-56.53h20.2V240.67z M307.34,354.43h29.46l7.01-35.91h25.25
						c11.08,0,20.2-1.12,27.49-3.51c7.15-2.38,13.75-6.31,19.5-11.78c4.91-4.49,8.98-9.54,11.92-15.01
						c3.09-5.47,5.19-11.5,6.45-18.1c3.09-15.99,0.7-28.48-7.01-37.45c-7.86-8.98-20.2-13.33-37.17-13.33h-56.53L307.34,354.43"/>
				</g>
			</g>
		</g>
	</g>
</g>
</svg>
